<svg width="17" height="17" viewBox="0 0 17 17" fill="none" xmlns="http://www.w3.org/2000/svg">
<path d="M13.6741 10.7961C13.1584 9.95388 12.4878 7.31114 13.33 6.79538C13.9108 6.43981 15.0652 7.18436 15.8948 7.95728C15.6158 4.04597 12.3621 0.957153 8.37968 0.957153C4.31393 0.957153 1.00853 4.17671 0.852295 8.20439C1.68268 7.35568 3.02668 6.40138 3.66959 6.79502C4.51183 7.31078 3.84127 9.95352 3.32551 10.7958C2.93868 11.4275 2.21712 11.7357 1.52501 11.633C2.71564 14.2326 5.33324 16.0421 8.37968 16.0421C11.4211 16.0421 14.0351 14.2384 15.2282 11.6455C14.6166 11.652 14.015 11.3532 13.6741 10.7961Z" fill="#FBD971"/>
<path d="M4.66913 13.1691C4.66913 10.9872 6.43802 9.21832 8.61994 9.21832C10.8019 9.21832 12.5708 10.9872 12.5708 13.1691H4.66913Z" fill="#C03A2B"/>
<path d="M4.66913 13.1691C4.66913 12.1775 6.43802 11.3733 8.61994 11.3733C10.8019 11.3733 12.5708 12.1775 12.5708 13.1691" fill="#E64C3C"/>
<path d="M6.94336 7.42251C6.74474 7.42251 6.5842 7.26196 6.5842 7.06334C6.5842 6.46928 6.10076 5.98585 5.5067 5.98585C4.91264 5.98585 4.42921 6.46928 4.42921 7.06334C4.42921 7.26196 4.26866 7.42251 4.07004 7.42251C3.87142 7.42251 3.71088 7.26196 3.71088 7.06334C3.71088 6.07312 4.51648 5.26752 5.5067 5.26752C6.49692 5.26752 7.30253 6.07312 7.30253 7.06334C7.30253 7.26196 7.14198 7.42251 6.94336 7.42251Z" fill="#F29C1F"/>
<path d="M13.0492 7.42251C12.8506 7.42251 12.69 7.26196 12.69 7.06334C12.69 6.46928 12.2066 5.98585 11.6125 5.98585C11.0185 5.98585 10.535 6.46928 10.535 7.06334C10.535 7.26196 10.3745 7.42251 10.1759 7.42251C9.97726 7.42251 9.81671 7.26196 9.81671 7.06334C9.81671 6.07312 10.6223 5.26752 11.6125 5.26752C12.6028 5.26752 13.4084 6.07312 13.4084 7.06334C13.4084 7.26196 13.2478 7.42251 13.0492 7.42251Z" fill="#F29C1F"/>
<path d="M16.1434 11.3902C15.3011 11.9059 14.1899 11.6387 13.6741 10.7965C13.1583 9.95421 12.4878 7.31147 13.33 6.79571C14.1723 6.27995 16.2213 8.07865 16.7371 8.92089C17.2528 9.76313 16.9856 10.8744 16.1434 11.3902Z" fill="#48A0DC"/>
<path d="M0.856591 11.3902C1.69883 11.9059 2.81009 11.6387 3.32585 10.7965C3.84161 9.95421 4.51217 7.31147 3.66993 6.79571C2.82769 6.27995 0.778653 8.07865 0.262892 8.92089C-0.252869 9.76313 0.0143495 10.8744 0.856591 11.3902Z" fill="#48A0DC"/>
</svg>
