<svg width="15" height="15" viewBox="0 0 15 15" fill="none" xmlns="http://www.w3.org/2000/svg">
<path d="M7.5 15C11.6421 15 15 11.6421 15 7.5C15 3.35786 11.6421 0 7.5 0C3.35786 0 0 3.35786 0 7.5C0 11.6421 3.35786 15 7.5 15Z" fill="#FBD971"/>
<path d="M4.64288 6.07141C5.33324 6.07141 5.89288 5.51177 5.89288 4.82141C5.89288 4.13106 5.33324 3.57141 4.64288 3.57141C3.95253 3.57141 3.39288 4.13106 3.39288 4.82141C3.39288 5.51177 3.95253 6.07141 4.64288 6.07141Z" fill="#AF8066"/>
<path d="M10.3571 6.07141C11.0475 6.07141 11.6071 5.51177 11.6071 4.82141C11.6071 4.13106 11.0475 3.57141 10.3571 3.57141C9.66676 3.57141 9.10712 4.13106 9.10712 4.82141C9.10712 5.51177 9.66676 6.07141 10.3571 6.07141Z" fill="#AF8066"/>
<path d="M11.4286 12.5C11.2314 12.5 11.0714 12.34 11.0714 12.1428C11.0714 10.1735 9.46929 8.5714 7.50001 8.5714C5.53072 8.5714 3.92858 10.1735 3.92858 12.1428C3.92858 12.34 3.76858 12.5 3.57144 12.5C3.37429 12.5 3.21429 12.34 3.21429 12.1428C3.21429 9.77962 5.13679 7.85712 7.50001 7.85712C9.86322 7.85712 11.7857 9.77962 11.7857 12.1428C11.7857 12.34 11.6257 12.5 11.4286 12.5Z" fill="#F0C419"/>
</svg>
