<svg width="12" height="13" viewBox="0 0 12 13" fill="none" xmlns="http://www.w3.org/2000/svg">
<g clip-path="url(#clip0)">
<path d="M1.24999 5.75C0.561 5.75 0 6.311 0 6.99999V11C0 11.689 0.561 12.25 1.24999 12.25H2.74999C3.0315 12.25 3.29048 12.155 3.49999 11.997V5.75H1.24999Z" fill="#D00170"/>
<path d="M12 7.62499C12 7.3245 11.881 7.04449 11.6745 6.83798C11.908 6.58249 12.027 6.23998 11.9945 5.88349C11.936 5.24798 11.3635 4.74998 10.6905 4.74998H7.60199C7.75499 4.28548 7.99998 3.43399 7.99998 2.74999C7.99998 1.66549 7.07849 0.75 6.49998 0.75C5.98049 0.75 5.60948 1.0425 5.59349 1.0545C5.5345 1.10201 5.5 1.17401 5.5 1.24999V2.94548L4.06 6.06499L4 6.09548V11.4545C4.40699 11.6465 4.92198 11.75 5.24999 11.75H9.8395C10.384 11.75 10.8605 11.383 10.9725 10.8765C11.03 10.616 10.9965 10.3535 10.882 10.1255C11.2515 9.93949 11.5 9.55898 11.5 9.12499C11.5 8.94799 11.4595 8.77849 11.3825 8.625C11.752 8.439 12 8.05849 12 7.62499Z" fill="#D00170"/>
</g>
<defs>
<clipPath id="clip0">
<rect width="12" height="12" fill="white" transform="translate(0 0.5)"/>
</clipPath>
</defs>
</svg>
