<svg width="15" height="15" viewBox="0 0 15 15" fill="none" xmlns="http://www.w3.org/2000/svg">
<path d="M7.5 15C11.6421 15 15 11.6421 15 7.5C15 3.35786 11.6421 0 7.5 0C3.35786 0 0 3.35786 0 7.5C0 11.6421 3.35786 15 7.5 15Z" fill="#FBD971"/>
<path d="M7.50001 12.8572C5.13679 12.8572 3.21429 10.9347 3.21429 8.57144C3.21429 8.37394 3.37429 8.21429 3.57144 8.21429C3.76858 8.21429 3.92858 8.37394 3.92858 8.57144C3.92858 10.5407 5.53072 12.1429 7.50001 12.1429C9.46929 12.1429 11.0714 10.5407 11.0714 8.57144C11.0714 8.37394 11.2314 8.21429 11.4286 8.21429C11.6257 8.21429 11.7857 8.37394 11.7857 8.57144C11.7857 10.9347 9.86322 12.8572 7.50001 12.8572Z" fill="#F0C419"/>
<path d="M4.48036 3.82215C4.63678 3.46429 4.99357 3.21429 5.40929 3.21429C5.96893 3.21429 6.37179 3.67644 6.4225 4.22751C6.4225 4.22751 6.45 4.36429 6.38964 4.61037C6.30786 4.94572 6.115 5.24358 5.85536 5.47072L4.48036 6.65537L3.12857 5.47108C2.86893 5.24394 2.67607 4.94572 2.59428 4.61072C2.53393 4.36465 2.56143 4.22787 2.56143 4.22787C2.61214 3.67644 3.015 3.21429 3.57464 3.21429C3.99 3.21429 4.32393 3.46429 4.48036 3.82215Z" fill="#E64C3C"/>
<path d="M10.4964 3.82215C10.6528 3.46429 11.01 3.21429 11.4253 3.21429C11.985 3.21429 12.3878 3.67644 12.4385 4.22751C12.4385 4.22751 12.466 4.36429 12.4057 4.61037C12.3239 4.94572 12.131 5.24358 11.8714 5.47072L10.4964 6.65537L9.14462 5.47072C8.88498 5.24358 8.69212 4.94537 8.61034 4.61037C8.54998 4.36429 8.57748 4.22751 8.57748 4.22751C8.62819 3.67644 9.03141 3.21429 9.59069 3.21429C10.0064 3.21429 10.34 3.46429 10.4964 3.82215Z" fill="#E64C3C"/>
</svg>
