<svg width="15" height="15" viewBox="0 0 15 15" fill="none" xmlns="http://www.w3.org/2000/svg">
<path d="M7.5 15C11.6421 15 15 11.6421 15 7.5C15 3.35786 11.6421 0 7.5 0C3.35786 0 0 3.35786 0 7.5C0 11.6421 3.35786 15 7.5 15Z" fill="#FBD971"/>
<path d="M4.28574 7.50001C5.46921 7.50001 6.4286 6.54062 6.4286 5.35715C6.4286 4.17368 5.46921 3.21429 4.28574 3.21429C3.10227 3.21429 2.14288 4.17368 2.14288 5.35715C2.14288 6.54062 3.10227 7.50001 4.28574 7.50001Z" fill="white"/>
<path d="M10.7143 7.50001C11.8977 7.50001 12.8571 6.54062 12.8571 5.35715C12.8571 4.17368 11.8977 3.21429 10.7143 3.21429C9.5308 3.21429 8.57141 4.17368 8.57141 5.35715C8.57141 6.54062 9.5308 7.50001 10.7143 7.50001Z" fill="white"/>
<path d="M4.64285 12.5C4.59678 12.5 4.55035 12.4911 4.50535 12.4722C4.32321 12.3965 4.23714 12.1872 4.31321 12.005C5.38464 9.43502 8.54285 8.20252 11.2089 9.31288C11.3911 9.38859 11.4771 9.59788 11.4011 9.78002C11.325 9.96216 11.1164 10.0486 10.9339 9.97216C8.62464 9.01038 5.895 10.0668 4.9725 12.28C4.91535 12.4175 4.78285 12.5 4.64285 12.5Z" fill="#F0C419"/>
<path d="M4.28572 6.42856C4.87746 6.42856 5.35715 5.94887 5.35715 5.35713C5.35715 4.7654 4.87746 4.28571 4.28572 4.28571C3.69399 4.28571 3.21429 4.7654 3.21429 5.35713C3.21429 5.94887 3.69399 6.42856 4.28572 6.42856Z" fill="#AF8066"/>
<path d="M10.7143 6.42856C11.306 6.42856 11.7857 5.94887 11.7857 5.35713C11.7857 4.7654 11.306 4.28571 10.7143 4.28571C10.1226 4.28571 9.64288 4.7654 9.64288 5.35713C9.64288 5.94887 10.1226 6.42856 10.7143 6.42856Z" fill="#AF8066"/>
</svg>
