<svg width="15" height="15" viewBox="0 0 15 15" fill="none" xmlns="http://www.w3.org/2000/svg">
<path d="M7.5 15C11.6421 15 15 11.6421 15 7.5C15 3.35786 11.6421 0 7.5 0C3.35786 0 0 3.35786 0 7.5C0 11.6421 3.35786 15 7.5 15Z" fill="#FBD971"/>
<path d="M7.50001 12.8572C5.13679 12.8572 3.21429 10.9347 3.21429 8.57144C3.21429 8.37429 3.37429 8.21429 3.57144 8.21429C3.76858 8.21429 3.92858 8.37429 3.92858 8.57144C3.92858 10.5407 5.53072 12.1429 7.50001 12.1429C9.46929 12.1429 11.0714 10.5407 11.0714 8.57144C11.0714 8.37429 11.2314 8.21429 11.4286 8.21429C11.6257 8.21429 11.7857 8.37429 11.7857 8.57144C11.7857 10.9347 9.86322 12.8572 7.50001 12.8572Z" fill="#F0C419"/>
<path d="M5.71429 6.07145C5.51714 6.07145 5.35714 5.91145 5.35714 5.7143C5.35714 5.12359 4.87643 4.64287 4.28571 4.64287C3.695 4.64287 3.21429 5.12359 3.21429 5.7143C3.21429 5.91145 3.05429 6.07145 2.85714 6.07145C2.66 6.07145 2.5 5.91145 2.5 5.7143C2.5 4.72966 3.30107 3.92859 4.28571 3.92859C5.27036 3.92859 6.07143 4.72966 6.07143 5.7143C6.07143 5.91145 5.91143 6.07145 5.71429 6.07145Z" fill="#F29C1F"/>
<path d="M12.1429 6.07145C11.9457 6.07145 11.7857 5.91145 11.7857 5.7143C11.7857 5.12359 11.305 4.64287 10.7143 4.64287C10.1236 4.64287 9.64287 5.12359 9.64287 5.7143C9.64287 5.91145 9.48287 6.07145 9.28573 6.07145C9.08859 6.07145 8.92859 5.91145 8.92859 5.7143C8.92859 4.72966 9.72966 3.92859 10.7143 3.92859C11.6989 3.92859 12.5 4.72966 12.5 5.7143C12.5 5.91145 12.34 6.07145 12.1429 6.07145Z" fill="#F29C1F"/>
</svg>
